<?xml version="1.0"?>
<svg width="108" height="108" xmlns="http://www.w3.org/2000/svg" xmlns:svg="http://www.w3.org/2000/svg" version="1.1" xml:space="preserve">
 <metadata id="metadata90">image/svg+xml</metadata>
 <defs id="defs88">
  <linearGradient id="svg_2" x1="0" x2="1" y1="0" y2="0">
   <stop id="jq_stop_4813" offset="0" stop-color="#536dfe" stop-opacity="1"/>
   <stop id="jq_stop_9991" offset="1" stop-color="#6a3de8" stop-opacity="1"/>
  </linearGradient>
 </defs>
 <g class="layer">
  <title>Layer 1</title>
  <g display="inline" id="layer2">
   <path d="m98.83,19.85c-25.8,-15.13 -44.78,-18.35 -44.78,-18.35c0,0 -0.02,0 -0.05,0.01c-0.03,-0.01 -0.05,-0.01 -0.05,-0.01c0,0 -18.98,3.22 -44.78,18.35c0,0 -3.42,76.36 44.78,86.65c0.02,0 0.03,-0.01 0.05,-0.01c0.02,0 0.03,0.01 0.05,0.01c48.2,-10.29 44.78,-86.65 44.78,-86.65z" display="inline" fill="#ffffff" id="path51" stroke-width="0.17"/>
  </g>
  <g display="inline" id="layer4">
   <path d="m35.13,48.2c4.51,8.88 11.79,16.13 20.67,20.67l6.9,-6.9c0.84,-0.84 2.1,-1.13 3.19,-0.75c3.52,1.16 7.31,1.79 11.2,1.79c1.73,0 3.14,1.41 3.14,3.14l0,10.94c0,1.73 -1.41,3.14 -3.14,3.14c-29.45,0 -53.32,-23.87 -53.32,-53.32c0,-1.73 1.41,-3.14 3.14,-3.14l10.98,0c1.72,0 3.13,1.41 3.13,3.14c0,3.92 0.63,7.68 1.79,11.2c0.35,1.09 0.09,2.32 -0.78,3.19l-6.9,6.9z" fill="url(#svg_2)" id="path103" stroke-width="3.14"/>
  </g>
 </g>
</svg>